<svg width="13" height="17" viewBox="0 0 13 17" fill="none" xmlns="http://www.w3.org/2000/svg">
<path fill-rule="evenodd" clip-rule="evenodd" d="M6.50339 0C4.11949 0 2.18697 1.94077 2.18697 4.33483C2.18697 6.72889 4.11949 8.66966 6.50339 8.66966C8.88729 8.66966 10.8198 6.72889 10.8198 4.33483C10.8198 1.94077 8.88729 0 6.50339 0ZM6.50325 1.17623C8.24029 1.17623 9.64844 2.59038 9.64844 4.33483C9.64844 6.07927 8.24029 7.49343 6.50325 7.49343C4.76621 7.49343 3.35806 6.07927 3.35806 4.33483C3.35806 2.59038 4.76621 1.17623 6.50325 1.17623ZM4.73692 10.417C4.10502 10.4608 3.46629 10.551 2.83627 10.6861C1.62027 10.9365 0.647443 11.437 0.233382 12.2686C0.0772098 12.5939 -0.00130839 12.9421 1.64897e-05 13.2947C-0.000452028 13.6447 0.0774304 13.9934 0.228002 14.3124C0.625579 15.1345 1.48509 15.5997 2.6457 15.8576L2.8536 15.901C3.46652 16.0393 4.10543 16.1324 4.74863 16.1761C4.80341 16.1922 4.93397 16.2071 5.07647 16.2144L5.19368 16.2188C5.25394 16.2202 5.32234 16.2205 5.42425 16.2205C6.34875 16.2714 7.30715 16.2566 8.26111 16.1753C8.76947 16.1406 9.28127 16.0741 9.78878 15.9767L10.1685 15.8978C11.4218 15.6506 12.3602 15.1804 12.7714 14.3133C13.0762 13.6696 13.0762 12.9226 12.7715 12.2791C12.3614 11.4142 11.4349 10.9479 10.159 10.6851C9.65841 10.5782 9.14973 10.4992 8.63742 10.4487L8.26288 10.417C7.08982 10.3135 5.90998 10.3135 4.73692 10.417ZM8.16048 11.5887L8.17078 11.5895C8.75874 11.6309 9.34311 11.7134 9.91963 11.8365C10.8673 12.0317 11.5105 12.3554 11.714 12.7845C11.8672 13.1081 11.8672 13.4841 11.7138 13.8079C11.5237 14.2089 10.9461 14.5187 10.1112 14.708L9.92843 14.7467C9.34058 14.8779 8.75814 14.9624 8.17185 15.0026C7.26216 15.0799 6.35786 15.0939 5.45584 15.0451L5.13603 15.0397C5.04726 15.0351 4.97244 15.0266 4.9031 15.0126C4.35405 14.9712 3.86 14.9056 3.38031 14.8105L3.09389 14.7499C2.14323 14.5636 1.4944 14.2385 1.28403 13.8035C1.21042 13.6475 1.1711 13.4715 1.17134 13.2933C1.17068 13.116 1.20948 12.944 1.2848 12.787C1.48934 12.3763 2.17693 12.0226 3.07626 11.8373C3.65693 11.7129 4.24103 11.6304 4.82872 11.5895C5.94436 11.4912 7.05561 11.4912 8.16048 11.5887Z" fill="white"/>
</svg>
