<svg width="14" height="14" viewBox="0 0 14 14" fill="none" xmlns="http://www.w3.org/2000/svg">
<path fill-rule="evenodd" clip-rule="evenodd" d="M4.12873 5.49168L9.02841 0.600131C9.83079 -0.20005 11.1312 -0.20005 11.9336 0.600131L12.7316 1.39689C13.5341 2.19801 13.5341 3.49733 12.7316 4.29758L7.80854 9.21251C7.44939 9.57106 6.96238 9.77258 6.45445 9.77258H3.99848C3.72212 9.77258 3.50004 9.54528 3.50691 9.26947L3.56854 6.79516C3.5809 6.30515 3.78138 5.83846 4.12873 5.49168ZM12.0362 2.09114L11.2385 1.29475C10.8201 0.87749 10.1418 0.87749 9.72361 1.29456L9.3205 1.697L11.6331 4.00578L12.0364 3.60315C12.4546 3.18616 12.4546 2.50877 12.0362 2.09114ZM10.9377 4.70002L8.62511 2.39124L4.82411 6.18593C4.65517 6.35459 4.55767 6.58157 4.55166 6.81972L4.50212 8.79018L6.45444 8.79077C6.67058 8.79077 6.87898 8.71572 7.04478 8.58007L7.11313 8.51827L10.9377 4.70002ZM6.22329 0.0252584C6.49486 0.0252584 6.71501 0.245043 6.71501 0.516162C6.71501 0.764687 6.53002 0.970078 6.29001 1.00258L6.22329 1.00707H3.7719C2.1187 1.00707 1.04788 2.10192 0.986325 3.80216L0.983521 3.95838V9.40021C0.983521 11.139 2.00227 12.2827 3.62292 12.3485L3.7719 12.3515H9.55715C11.2145 12.3515 12.282 11.259 12.3434 9.55664L12.3462 9.40021V6.76373C12.3462 6.49261 12.5663 6.27282 12.8379 6.27282C13.0868 6.27282 13.2926 6.4575 13.3251 6.69711L13.3296 6.76373V9.40021C13.3296 11.6663 11.8918 13.2596 9.71053 13.3308L9.55715 13.3333H3.7719C1.55695 13.3333 0.0689 11.7914 0.00240533 9.55719L8.13802e-05 9.40021V3.95838C8.13802e-05 1.69452 1.44158 0.0991023 3.61882 0.0277527L3.7719 0.0252584H6.22329Z" fill="white"/>
</svg>
