<svg width="14" height="13" viewBox="0 0 14 13" fill="none" xmlns="http://www.w3.org/2000/svg">
<path fill-rule="evenodd" clip-rule="evenodd" d="M3.87469 0H9.45864C11.5985 0 13.3333 1.7741 13.3333 3.9625V4.45726L13.3335 4.46828L13.3333 4.47929V8.01337L13.3335 8.02438L13.3333 8.03539V8.70417C13.3333 10.8926 11.5985 12.6667 9.45864 12.6667H3.87469C1.73479 12.6667 0 10.8926 0 8.70417V3.9625C0 1.7741 1.73479 0 3.87469 0ZM12.3643 3.9625V3.97277H10.2336L10.1116 3.97621C8.94008 4.04163 8.00982 5.03276 8.00982 6.24633C8.01057 7.50204 9.00557 8.51911 10.2333 8.51989H12.3643V8.70417C12.3643 10.3452 11.0633 11.6757 9.45864 11.6757H3.87469C2.26998 11.6757 0.969051 10.3452 0.969051 8.70417V3.9625C0.969051 2.32142 2.26998 0.99101 3.87469 0.99101H9.45864C11.0633 0.99101 12.3643 2.32142 12.3643 3.9625ZM10.2339 4.96378H12.3643V7.52887H10.2336L10.1356 7.52496C9.48859 7.47347 8.97927 6.92075 8.97887 6.24602C8.97887 5.53828 9.54061 4.96421 10.2339 4.96378ZM11.014 6.20562C11.014 5.93196 10.797 5.71012 10.5294 5.71012H10.3281L10.2623 5.71464C10.0258 5.74745 9.84356 5.95477 9.84356 6.20562C9.84356 6.47928 10.0605 6.70113 10.3281 6.70113H10.5294L10.5952 6.69661C10.8317 6.6638 11.014 6.45648 11.014 6.20562ZM7.38711 3.49375C7.38711 3.22009 7.17018 2.99824 6.90259 2.99824H3.41468L3.34894 3.00277C3.11244 3.03558 2.93016 3.24289 2.93016 3.49375C2.93016 3.76741 3.14709 3.98925 3.41468 3.98925H6.90259L6.96834 3.98473C7.20483 3.95192 7.38711 3.7446 7.38711 3.49375Z" fill="white"/>
</svg>
